HIERARCHY
ROOT reference
{
  OFFSET 0 0 0
  CHANNELS 6 Xposition Yposition Zposition Zrotation Xrotation Yrotation
  JOINT Hips
  {
    OFFSET 356.501 91.4882 232.072
    CHANNELS 3 Zrotation Xrotation Yrotation
    JOINT RightUpLeg
    {
      OFFSET -9.22368 -1.56954 0.0182318
      CHANNELS 3 Zrotation Xrotation Yrotation
      JOINT RightLeg
      {
        OFFSET 0.0168043 -41.8502 0.039304
        CHANNELS 3 Zrotation Xrotation Yrotation
        JOINT RightFoot
        {
          OFFSET -1.24655 -41.4872 1.84727
          CHANNELS 3 Zrotation Xrotation Yrotation
          End Site
          {
            OFFSET 0 -7.69 17.5
          }
        }
      }
    }
    JOINT LeftUpLeg
    {
      OFFSET 9.32755 -1.5915 0.117934
      CHANNELS 3 Zrotation Xrotation Yrotation
      JOINT LeftLeg
      {
        OFFSET 0.115891 -41.8441 0.138627
        CHANNELS 3 Zrotation Xrotation Yrotation
        JOINT LeftFoot
        {
          OFFSET -0.00258131 -42.0603 -2.16995
          CHANNELS 3 Zrotation Xrotation Yrotation
          End Site
          {
            OFFSET 0 -7.69 17.5
          }
        }
      }
    }
    JOINT Spine
    {
      OFFSET 0.0618908 14.3142 0.263402
      CHANNELS 3 Zrotation Xrotation Yrotation
      JOINT Spine1
      {
        OFFSET 0.00953893 9.71784 0.0772804
        CHANNELS 3 Zrotation Xrotation Yrotation
        JOINT Spine2
        {
          OFFSET 0.0659978 10.1164 -0.109334
          CHANNELS 3 Zrotation Xrotation Yrotation
          JOINT Spine3
          {
            OFFSET 0.00354353 9.7233 0.0181573
            CHANNELS 3 Zrotation Xrotation Yrotation
            JOINT Neck
            {
              OFFSET -0.106539 10.3631 0.143191
              CHANNELS 3 Zrotation Xrotation Yrotation
              JOINT Head
              {
                OFFSET 0.0687213 9.49492 0.178169
                CHANNELS 3 Zrotation Xrotation Yrotation
                End Site
                {
                  OFFSET 0 15.95 0
                }
              }
            }
            JOINT RightShoulder
            {
              OFFSET -3.17341 6.93407 0.0508814
              CHANNELS 3 Zrotation Xrotation Yrotation
              JOINT RightArm
              {
                OFFSET -12.8122 0.02699 0.0058978
                CHANNELS 3 Zrotation Xrotation Yrotation
                JOINT RightForeArm
                {
                  OFFSET -26.4689 -0.0132424 0.0432591
                  CHANNELS 3 Zrotation Xrotation Yrotation
                  JOINT RightHand
                  {
                    OFFSET -25.9762 -0.0747187 0.0544432
                    CHANNELS 3 Zrotation Xrotation Yrotation
                    JOINT RightHandThumb1
                    {
                      OFFSET -2.48905 0.190105 3.12053
                      CHANNELS 3 Zrotation Xrotation Yrotation
                      JOINT RightHandThumb2
                      {
                        OFFSET -3.68274 0 0
                        CHANNELS 3 Zrotation Xrotation Yrotation
                        JOINT RightHandThumb3
                        {
                          OFFSET -2.55832 0 0
                          CHANNELS 3 Zrotation Xrotation Yrotation
                          End Site
                          {
                            OFFSET -2.194 0 0
                          }
                        }
                      }
                    }
                    JOINT RightInHandIndex
                    {
                      OFFSET -3.22368 0.508421 1.97842
                      CHANNELS 3 Zrotation Xrotation Yrotation
                      JOINT RightHandIndex1
                      {
                        OFFSET -5.21684 -0.091368 0.999158
                        CHANNELS 3 Zrotation Xrotation Yrotation
                        JOINT RightHandIndex2
                        {
                          OFFSET -3.61937 0 0
                          CHANNELS 3 Zrotation Xrotation Yrotation
                          JOINT RightHandIndex3
                          {
                            OFFSET -2.0521 0 0
                            CHANNELS 3 Zrotation Xrotation Yrotation
                            End Site
                            {
                              OFFSET -1.805 0 0
                            }
                          }
                        }
                      }
                    }
                    JOINT RightInHandMiddle
                    {
                      OFFSET -3.38211 0.517263 0.756737
                      CHANNELS 3 Zrotation Xrotation Yrotation
                      JOINT RightHandMiddle1
                      {
                        OFFSET -5.17411 -0.084 0.313895
                        CHANNELS 3 Zrotation Xrotation Yrotation
                        JOINT RightHandMiddle2
                        {
                          OFFSET -3.94947 0 0
                          CHANNELS 3 Zrotation Xrotation Yrotation
                          JOINT RightHandMiddle3
                          {
                            OFFSET -2.47579 0 0
                            CHANNELS 3 Zrotation Xrotation Yrotation
                            End Site
                            {
                              OFFSET -1.975 0 0
                            }
                          }
                        }
                      }
                    }
                    JOINT RightInHandRing
                    {
                      OFFSET -3.36516 0.537895 -0.128947
                      CHANNELS 3 Zrotation Xrotation Yrotation
                      JOINT RightHandRing1
                      {
                        OFFSET -4.63474 -0.022105 -0.478947
                        CHANNELS 3 Zrotation Xrotation Yrotation
                        JOINT RightHandRing2
                        {
                          OFFSET -3.44238 0 0
                          CHANNELS 3 Zrotation Xrotation Yrotation
                          JOINT RightHandRing3
                          {
                            OFFSET -2.3881 0 0
                            CHANNELS 3 Zrotation Xrotation Yrotation
                            End Site
                            {
                              OFFSET -1.857 0 0
                            }
                          }
                        }
                      }
                    }
                    JOINT RightInHandPinky
                    {
                      OFFSET -3.16105 0.469368 -1.20179
                      CHANNELS 3 Zrotation Xrotation Yrotation
                      JOINT RightHandPinky1
                      {
                        OFFSET -4.14105 -0.022105 -1.09053
                        CHANNELS 3 Zrotation Xrotation Yrotation
                        JOINT RightHandPinky2
                        {
                          OFFSET -2.75653 0 0
                          CHANNELS 3 Zrotation Xrotation Yrotation
                          JOINT RightHandPinky3
                          {
                            OFFSET -1.74189 0 0
                            CHANNELS 3 Zrotation Xrotation Yrotation
                            End Site
                            {
                              OFFSET -1.645 0 0
                            }
                          }
                        }
                      }
                    }
                  }
                }
              }
            }
            JOINT LeftShoulder
            {
              OFFSET 3.13763 6.93537 0.265461
              CHANNELS 3 Zrotation Xrotation Yrotation
              JOINT LeftArm
              {
                OFFSET 12.4516 -0.0856895 0.350644
                CHANNELS 3 Zrotation Xrotation Yrotation
                JOINT LeftForeArm
                {
                  OFFSET 26.6962 -0.139113 0.0812581
                  CHANNELS 3 Zrotation Xrotation Yrotation
                  JOINT LeftHand
                  {
                    OFFSET 25.9561 0.0264111 -0.243705
                    CHANNELS 3 Zrotation Xrotation Yrotation
                    JOINT LeftHandThumb1
                    {
                      OFFSET 2.48905 0.190105 3.12053
                      CHANNELS 3 Zrotation Xrotation Yrotation
                      JOINT LeftHandThumb2
                      {
                        OFFSET 3.68274 0 0
                        CHANNELS 3 Zrotation Xrotation Yrotation
                        JOINT LeftHandThumb3
                        {
                          OFFSET 2.55832 0 0
                          CHANNELS 3 Zrotation Xrotation Yrotation
                          End Site
                          {
                            OFFSET 2.194 0 0
                          }
                        }
                      }
                    }
                    JOINT LeftInHandIndex
                    {
                      OFFSET 3.22368 0.508421 1.97842
                      CHANNELS 3 Zrotation Xrotation Yrotation
                      JOINT LeftHandIndex1
                      {
                        OFFSET 5.21684 -0.091368 0.999158
                        CHANNELS 3 Zrotation Xrotation Yrotation
                        JOINT LeftHandIndex2
                        {
                          OFFSET 3.61937 0 0
                          CHANNELS 3 Zrotation Xrotation Yrotation
                          JOINT LeftHandIndex3
                          {
                            OFFSET 2.0521 0 0
                            CHANNELS 3 Zrotation Xrotation Yrotation
                            End Site
                            {
                              OFFSET 1.805 0 0
                            }
                          }
                        }
                      }
                    }
                    JOINT LeftInHandMiddle
                    {
                      OFFSET 3.38211 0.517263 0.756737
                      CHANNELS 3 Zrotation Xrotation Yrotation
                      JOINT LeftHandMiddle1
                      {
                        OFFSET 5.17411 -0.084 0.313895
                        CHANNELS 3 Zrotation Xrotation Yrotation
                        JOINT LeftHandMiddle2
                        {
                          OFFSET 3.94947 0 0
                          CHANNELS 3 Zrotation Xrotation Yrotation
                          JOINT LeftHandMiddle3
                          {
                            OFFSET 2.47579 0 0
                            CHANNELS 3 Zrotation Xrotation Yrotation
                            End Site
                            {
                              OFFSET 1.975 0 0
                            }
                          }
                        }
                      }
                    }
                    JOINT LeftInHandRing
                    {
                      OFFSET 3.36516 0.537895 -0.128947
                      CHANNELS 3 Zrotation Xrotation Yrotation
                      JOINT LeftHandRing1
                      {
                        OFFSET 4.63474 -0.022105 -0.478947
                        CHANNELS 3 Zrotation Xrotation Yrotation
                        JOINT LeftHandRing2
                        {
                          OFFSET 3.44238 0 0
                          CHANNELS 3 Zrotation Xrotation Yrotation
                          JOINT LeftHandRing3
                          {
                            OFFSET 2.3881 0 0
                            CHANNELS 3 Zrotation Xrotation Yrotation
                            End Site
                            {
                              OFFSET 1.857 0 0
                            }
                          }
                        }
                      }
                    }
                    JOINT LeftInHandPinky
                    {
                      OFFSET 3.16105 0.469368 -1.20179
                      CHANNELS 3 Zrotation Xrotation Yrotation
                      JOINT LeftHandPinky1
                      {
                        OFFSET 4.14105 -0.022105 -1.09053
                        CHANNELS 3 Zrotation Xrotation Yrotation
                        JOINT LeftHandPinky2
                        {
                          OFFSET 2.75653 0 0
                          CHANNELS 3 Zrotation Xrotation Yrotation
                          JOINT LeftHandPinky3
                          {
                            OFFSET 1.74189 0 0
                            CHANNELS 3 Zrotation Xrotation Yrotation
                            End Site
                            {
                              OFFSET 1.645 0 0
                            }
                          }
                        }
                      }
                    }
                  }
                }
              }
            }
          }
        }
      }
    }
  }
}
MOTION
Frames: 2
Frame Time: 0.00833333
7.500000000000000000e+02 0.000000000000000000e+00 0.000000000000000000e+00 0.000000000000000000e+00 0.000000000000000000e+00 0.000000000000000000e+00 8.808450435479463492e-01 3.950879087033244974e-01 -9.267889383639079881e+00 6.958593787184881307e+00 2.560475106954647195e-01 4.654714929622197239e+00 -1.445977305077080222e-01 8.346206696090878729e-01 6.264342774991203955e-01 -5.571676150967715957e-01 -1.985996645494437107e+00 4.368317285557325569e+00 4.422643259298525642e+00 3.179559895637014577e+00 2.853761144023872376e+00 -2.216070540447740544e+00 -4.661609547852180180e-02 7.526405280903938344e-01 8.022010065272404677e-01 -1.156166584290497790e+00 5.777131821101431974e+00 -2.920231259609563090e-01 -1.847551314013320178e+00 -4.568225639173935981e+00 -1.113977336303356436e-01 -4.630576121647076993e-01 -1.116100365262016947e+00 -1.808828573448742483e-01 -7.357608008435001512e-01 -1.807751026955419116e+00 -3.530435285555839908e-02 -1.884051731543003594e-01 6.188876381334331711e-01 -1.414203284691429030e-01 -1.274088240084666701e+00 7.206122419553528502e+00 -5.102293381487016388e-01 -1.187366362270960041e+00 7.752948370455357008e+00 2.145968433760346294e-01 -1.346606736224541079e+00 -1.951778482409822102e+00 -6.210334265375322182e+00 -8.737266256453107616e+00 -2.568171036730922729e+00 -1.426012945222619877e+01 5.958851267825588494e+00 -8.316410589235685435e+00 -4.132530373335152052e-01 -3.703227061987301560e+00 4.498751143508068040e+00 0.000000000000000000e+00 0.000000000000000000e+00 0.000000000000000000e+00 1.339193675406022274e-15 2.132167233998906125e-15 0.000000000000000000e+00 -1.581458044536206015e-15 -8.486056925325420748e-16 0.000000000000000000e+00 -3.849263545637826294e-15 -6.469672926930561876e-16 -1.719911498412753978e-15 0.000000000000000000e+00 0.000000000000000000e+00 0.000000000000000000e+00 0.000000000000000000e+00 -1.953658268735244745e-15 -4.735895684204616290e-15 0.000000000000000000e+00 3.174495162148269696e-15 1.558431538566874265e-14 -3.849263545637826294e-15 -6.469672926930561876e-16 -1.719911498412753978e-15 0.000000000000000000e+00 -8.569153725776803895e-16 1.717805651758358332e-15 0.000000000000000000e+00 -2.525809416496468371e-15 -3.559839585527739222e-15 0.000000000000000000e+00 2.025564418220372905e-15 1.207331470821990903e-14 -3.849263545637826294e-15 -6.469672926930561876e-16 -1.719911498412753978e-15 0.000000000000000000e+00 0.000000000000000000e+00 0.000000000000000000e+00 0.000000000000000000e+00 1.257799925448433563e-15 -7.514259499154411359e-15 0.000000000000000000e+00 3.306449738673883762e-15 9.118794251495895672e-15 -3.849263545637826294e-15 -6.469672926930561876e-16 -1.719911498412753978e-15 0.000000000000000000e+00 0.000000000000000000e+00 0.000000000000000000e+00 0.000000000000000000e+00 -8.737440022597292813e-16 -3.291174226948771433e-15 0.000000000000000000e+00 5.737011958550974294e-16 1.951647791302923765e-15 -1.254448998689116301e+00 -2.240089389879945880e+00 -1.491730152101031992e+00 5.345653468717033618e+00 -1.377646034182050228e+00 -8.316847521753206962e+00 8.292521940684039805e+00 6.956987599489767859e-01 4.042842220234255102e+00 -3.263910244431134089e+00 1.394684336924600920e+00 -2.747979409299042164e+00 0.000000000000000000e+00 0.000000000000000000e+00 0.000000000000000000e+00 -3.036285092348509495e-15 -1.176766363992524689e-15 0.000000000000000000e+00 -3.826729045445891731e-15 3.105065621464793005e-16 0.000000000000000000e+00 -1.552726393711313421e-15 -3.039330621713308968e-16 1.597067291989763712e-17 0.000000000000000000e+00 0.000000000000000000e+00 0.000000000000000000e+00 0.000000000000000000e+00 1.708967761280922606e-15 -4.893609679217372983e-15 0.000000000000000000e+00 1.102436257051740939e-15 -6.419513001351227531e-15 -1.552726393711313421e-15 -3.039330621713308968e-16 1.597067291989763712e-17 0.000000000000000000e+00 -1.127866266566909886e-15 -1.742937766135270521e-15 0.000000000000000000e+00 2.388092971113821088e-15 -3.509711965173255974e-15 0.000000000000000000e+00 -2.312001806362650885e-15 -2.777504527196995216e-15 -1.552726393711313421e-15 -3.039330621713308968e-16 1.597067291989763712e-17 0.000000000000000000e+00 0.000000000000000000e+00 0.000000000000000000e+00 0.000000000000000000e+00 2.689689113692464125e-15 -7.193401112023750369e-15 0.000000000000000000e+00 3.470810452257906877e-15 -8.510131364958422938e-15 -1.552726393711313421e-15 -3.039330621713308968e-16 1.597067291989763712e-17 0.000000000000000000e+00 0.000000000000000000e+00 0.000000000000000000e+00 0.000000000000000000e+00 1.802594933095003732e-15 6.239885801070281786e-16 0.000000000000000000e+00 2.488478637378912620e-15 -4.558283013503216735e-15
7.500000000000000000e+02 0.000000000000000000e+00 0.000000000000000000e+00 0.000000000000000000e+00 0.000000000000000000e+00 0.000000000000000000e+00 8.752333282367827927e-01 4.418847469420991159e-01 -9.042853156739745657e+00 6.801130878398046420e+00 2.383116478915842384e-01 4.490904855069422830e+00 -1.283441969078086831e-01 8.532225826569717064e-01 5.894962174474077665e-01 -5.453235847812933912e-01 -1.989179960179219941e+00 4.286240935979553690e+00 4.373605416635133025e+00 3.081706974228176854e+00 2.782003000157798223e+00 -2.149553101891480633e+00 -7.134012403309200612e-02 6.911757300287735273e-01 7.642647408667418985e-01 -1.104420429134114645e+00 5.671396852973479064e+00 -2.814350591808018609e-01 -1.808726643859578154e+00 -4.497322559549744803e+00 -1.080380662517131662e-01 -4.526171837974862777e-01 -1.098574086306064679e+00 -1.753589765264085276e-01 -7.187029443281348629e-01 -1.779279124013705582e+00 -3.314205582937304606e-02 -1.864238659176293555e-01 6.081359218488116003e-01 -1.370836729297774947e-01 -1.248718643631792968e+00 7.075986677778194789e+00 -4.762672912962103711e-01 -1.195301770883689496e+00 7.620917864410145626e+00 2.041920397472525295e-01 -1.379414825548423762e+00 -1.897167840196645860e+00 -6.162192058098902692e+00 -8.543262389000078727e+00 -2.443834191099284237e+00 -1.435074381197928339e+01 5.830484861155666110e+00 -8.618478673688276359e+00 -3.939930240158679986e-01 -3.656554467969197031e+00 4.454571082791650483e+00 0.000000000000000000e+00 0.000000000000000000e+00 0.000000000000000000e+00 1.444578779911118568e-15 2.021131604681705151e-15 0.000000000000000000e+00 -1.652589334222205650e-15 -8.255908762428391257e-16 0.000000000000000000e+00 -3.895423844257397699e-15 -6.557154980031187768e-16 -1.718387984624448834e-15 0.000000000000000000e+00 0.000000000000000000e+00 0.000000000000000000e+00 0.000000000000000000e+00 -2.006006709940397842e-15 -4.990345950935381035e-15 0.000000000000000000e+00 3.308371086697206191e-15 1.612814034397098395e-14 -3.895423844257397699e-15 -6.557154980031187768e-16 -1.718387984624448834e-15 0.000000000000000000e+00 -7.906551539905566229e-16 1.663909382102177806e-15 0.000000000000000000e+00 -2.658485411261690300e-15 -3.874177290779283215e-15 0.000000000000000000e+00 2.226508870438236461e-15 1.235905824563299819e-14 -3.895423844257397699e-15 -6.557154980031187768e-16 -1.718387984624448834e-15 0.000000000000000000e+00 0.000000000000000000e+00 0.000000000000000000e+00 0.000000000000000000e+00 1.212554447574438038e-15 -7.914146367249022019e-15 0.000000000000000000e+00 3.287654133242489425e-15 9.300442891734471222e-15 -3.895423844257397699e-15 -6.557154980031187768e-16 -1.718387984624448834e-15 0.000000000000000000e+00 0.000000000000000000e+00 0.000000000000000000e+00 0.000000000000000000e+00 -8.619030434438422025e-16 -3.461954142545077704e-15 0.000000000000000000e+00 5.389309653848009131e-16 2.179795082074904294e-15 -1.227983297587628364e+00 -2.216820311513185704e+00 -1.447967238285070568e+00 5.261134428345123126e+00 -1.388047631602023602e+00 -8.174111893639874893e+00 8.265723404713668288e+00 4.902148518135730493e-01 4.145972006034626567e+00 -3.248561762356360738e+00 1.397962563908391909e+00 -2.695036065895175970e+00 0.000000000000000000e+00 0.000000000000000000e+00 0.000000000000000000e+00 -2.820631906489751094e-15 -1.167203825733918928e-15 0.000000000000000000e+00 -3.895220387107425486e-15 3.295716172033212007e-16 0.000000000000000000e+00 -1.572038148150368820e-15 -2.403916776012095634e-16 -4.167956309237027104e-17 0.000000000000000000e+00 0.000000000000000000e+00 0.000000000000000000e+00 0.000000000000000000e+00 1.663690412360143586e-15 -4.838940974443329572e-15 0.000000000000000000e+00 1.034041365464641328e-15 -6.211827274143702041e-15 -1.572038148150368820e-15 -2.403916776012095634e-16 -4.167956309237027104e-17 0.000000000000000000e+00 -1.120203026205264474e-15 -1.814395522478762757e-15 0.000000000000000000e+00 2.373403129989468805e-15 -3.451979902629068051e-15 0.000000000000000000e+00 -2.381202746929637411e-15 -2.416937319753903672e-15 -1.572038148150368820e-15 -2.403916776012095634e-16 -4.167956309237027104e-17 0.000000000000000000e+00 0.000000000000000000e+00 0.000000000000000000e+00 0.000000000000000000e+00 2.664694252455331481e-15 -7.022647665074892345e-15 0.000000000000000000e+00 3.352644300478272955e-15 -8.240812067311169493e-15 -1.572038148150368820e-15 -2.403916776012095634e-16 -4.167956309237027104e-17 0.000000000000000000e+00 0.000000000000000000e+00 0.000000000000000000e+00 0.000000000000000000e+00 1.863530102677699707e-15 5.591530454068658273e-16 0.000000000000000000e+00 2.529987949070454717e-15 -4.472404248867116739e-15
